<mxfile host="app.diagrams.net" modified="2021-09-16T15:22:08.395Z" agent="5.0 (Windows NT 10.0; Win64; x64) AppleWebKit/537.36 (KHTML, like Gecko) Chrome/93.0.4577.82 Safari/537.36" etag="gRlM4CToAz3qrYQj2LlN" version="15.2.7" type="github">
  <diagram name="Page-1" id="2ca16b54-16f6-2749-3443-fa8db7711227">
    <mxGraphModel dx="868" dy="482" grid="1" gridSize="10" guides="1" tooltips="1" connect="1" arrows="1" fold="1" page="1" pageScale="1" pageWidth="1100" pageHeight="850" background="none" math="0" shadow="0">
      <root>
        <mxCell id="0" />
        <mxCell id="1" parent="0" />
        <mxCell id="KsyE07cuNZkEJcJu-xXC-20" value="&lt;b&gt;ODJEÄ†A&lt;/b&gt;&lt;br&gt;ID:&lt;br&gt;ID KUPOVINE:&lt;br&gt;ID LOKACIJE.&lt;br&gt;ID KUPCA:&lt;br&gt;&lt;br&gt;" style="rounded=0;whiteSpace=wrap;html=1;fillColor=#dae8fc;strokeColor=#6c8ebf;" vertex="1" parent="1">
          <mxGeometry x="310" y="365" width="280" height="120" as="geometry" />
        </mxCell>
        <mxCell id="KsyE07cuNZkEJcJu-xXC-21" value="&lt;b&gt;LOKACIJA&lt;/b&gt;&lt;br&gt;ID:&lt;br&gt;IME:&lt;br&gt;" style="rounded=0;whiteSpace=wrap;html=1;fillColor=#dae8fc;strokeColor=#6c8ebf;" vertex="1" parent="1">
          <mxGeometry x="360" y="200" width="180" height="80" as="geometry" />
        </mxCell>
        <mxCell id="KsyE07cuNZkEJcJu-xXC-22" value="&lt;b&gt;KUPCI:&lt;br&gt;&lt;/b&gt;ID:&lt;br&gt;IME I PREZIME:&lt;br&gt;ADRESA:&lt;br&gt;BROJ TELEFONA:&lt;br&gt;E-MAIL" style="rounded=0;whiteSpace=wrap;html=1;fillColor=#dae8fc;strokeColor=#6c8ebf;" vertex="1" parent="1">
          <mxGeometry x="90" y="290" width="120" height="90" as="geometry" />
        </mxCell>
        <mxCell id="KsyE07cuNZkEJcJu-xXC-23" value="" style="endArrow=classic;startArrow=classic;html=1;entryX=0.5;entryY=1;entryDx=0;entryDy=0;" edge="1" parent="1" target="KsyE07cuNZkEJcJu-xXC-21">
          <mxGeometry width="50" height="50" relative="1" as="geometry">
            <mxPoint x="450" y="370" as="sourcePoint" />
            <mxPoint x="520" y="260" as="targetPoint" />
          </mxGeometry>
        </mxCell>
        <mxCell id="KsyE07cuNZkEJcJu-xXC-26" value="" style="endArrow=classic;startArrow=classic;html=1;entryX=1;entryY=0.5;entryDx=0;entryDy=0;" edge="1" parent="1" target="KsyE07cuNZkEJcJu-xXC-22">
          <mxGeometry width="50" height="50" relative="1" as="geometry">
            <mxPoint x="450" y="360" as="sourcePoint" />
            <mxPoint x="520" y="260" as="targetPoint" />
          </mxGeometry>
        </mxCell>
      </root>
    </mxGraphModel>
  </diagram>
</mxfile>
